<svg width="464" height="86" viewBox="0 0 464 86" fill="none" xmlns="http://www.w3.org/2000/svg">
<rect width="464" height="86" rx="15" fill="#ADFCAB" fill-opacity="0.56"/>
<rect x="1" y="1" width="462" height="84" rx="14" stroke="#7FB43B" stroke-opacity="0.54" stroke-width="2"/>
<rect x="45" y="35" width="258" height="17" rx="8.5" fill="#D9D9D9" fill-opacity="0.37"/>
<rect x="45" y="35" width="258" height="17" rx="8.5" fill="#21CF05"/>
<path d="M347.121 43.375C347.121 40.9531 346.496 39.1914 345.246 38.0898C343.996 36.9883 342.176 36.4375 339.785 36.4375H337.066V50.2305H340.125C342.406 50.2305 344.141 49.6562 345.328 48.5078C346.523 47.3516 347.121 45.6406 347.121 43.375ZM349.289 43.3164C349.289 46.1367 348.488 48.2891 346.887 49.7734C345.285 51.2578 343.051 52 340.184 52H335.039V34.668H339.844C341.289 34.668 342.582 34.8398 343.723 35.1836C344.863 35.5195 345.852 36.0352 346.688 36.7305C347.531 37.418 348.176 38.3203 348.621 39.4375C349.066 40.5469 349.289 41.8398 349.289 43.3164ZM353.707 45.6016C353.707 47.125 354.043 48.3477 354.715 49.2695C355.395 50.1836 356.383 50.6406 357.68 50.6406C358.961 50.6406 359.926 50.1836 360.574 49.2695C361.23 48.3555 361.559 47.125 361.559 45.5781C361.559 44.0078 361.234 42.7734 360.586 41.875C359.945 40.9688 358.965 40.5156 357.645 40.5156C356.363 40.5156 355.387 40.9766 354.715 41.8984C354.043 42.8203 353.707 44.0547 353.707 45.6016ZM363.586 45.5664C363.586 47.5586 363.055 49.1758 361.992 50.418C360.93 51.6523 359.461 52.2695 357.586 52.2695C355.781 52.2695 354.344 51.6445 353.273 50.3945C352.211 49.1445 351.68 47.5391 351.68 45.5781C351.68 43.5781 352.215 41.9609 353.285 40.7266C354.355 39.4922 355.824 38.875 357.691 38.875C359.527 38.875 360.969 39.4961 362.016 40.7383C363.062 41.9727 363.586 43.582 363.586 45.5664ZM366.363 52V39.1445H368.004L368.25 40.9844C368.758 40.3516 369.391 39.8438 370.148 39.4609C370.914 39.0703 371.738 38.875 372.621 38.875C374.105 38.875 375.203 39.293 375.914 40.1289C376.625 40.957 376.98 42.2344 376.98 43.9609V52H375.023C375.023 46.8438 375.02 44.082 375.012 43.7148C374.98 42.6211 374.758 41.8203 374.344 41.3125C373.938 40.8047 373.254 40.5508 372.293 40.5508C371.285 40.5508 370.445 40.793 369.773 41.2773C369.102 41.7617 368.664 42.3906 368.461 43.1641C368.383 43.6875 368.344 44.2891 368.344 44.9688V52H366.363ZM387.645 41.5234C387.074 40.8359 386.289 40.4922 385.289 40.4922C384.289 40.4922 383.473 40.8477 382.84 41.5586C382.207 42.2617 381.836 43.2266 381.727 44.4531H388.512C388.512 43.1797 388.223 42.2031 387.645 41.5234ZM385.676 52.2695C383.809 52.2695 382.336 51.6758 381.258 50.4883C380.188 49.3008 379.652 47.6758 379.652 45.6133C379.652 43.6211 380.172 42.0078 381.211 40.7734C382.25 39.5312 383.617 38.8984 385.312 38.875C386.906 38.875 388.168 39.4219 389.098 40.5156C390.035 41.6016 390.504 43.0547 390.504 44.875C390.504 44.9688 390.5 45.1406 390.492 45.3906C390.492 45.6406 390.492 45.8203 390.492 45.9297H381.668C381.691 47.3906 382.066 48.5312 382.793 49.3516C383.527 50.1641 384.512 50.5703 385.746 50.5703C387.105 50.5703 388.469 50.2109 389.836 49.4922L390.141 51.0742C388.836 51.8711 387.348 52.2695 385.676 52.2695ZM393.832 51.6836C393.559 51.3711 393.422 51.0078 393.422 50.5938C393.422 50.1797 393.559 49.8203 393.832 49.5156C394.113 49.2031 394.496 49.0469 394.98 49.0469C395.473 49.0469 395.855 49.1992 396.129 49.5039C396.402 49.8086 396.539 50.1719 396.539 50.5938C396.539 51.0156 396.402 51.3789 396.129 51.6836C395.855 51.9883 395.473 52.1406 394.98 52.1406C394.496 52.1406 394.113 51.9883 393.832 51.6836ZM396.129 34.4688V36.1328L395.473 46.9023H394.547L393.82 36.1328V34.4688H396.129Z" fill="#459A43"/>
<line x1="421.832" y1="43.6035" x2="427.832" y2="47.6035" stroke="#0B5B18" stroke-width="3"/>
<path d="M443.822 32.7474L426.229 48.1464" stroke="#0B5B18" stroke-width="3"/>
</svg>
