<svg width="36" height="37" viewBox="0 0 36 37" fill="none" xmlns="http://www.w3.org/2000/svg">
<ellipse cx="18" cy="18.5" rx="18" ry="18.5" transform="rotate(180 18 18.5)" fill="#1D005A"/>
<path d="M17 26C17 26.5523 17.4477 27 18 27C18.5523 27 19 26.5523 19 26H17ZM18.7071 9.29289C18.3166 8.90237 17.6834 8.90237 17.2929 9.29289L10.9289 15.6569C10.5384 16.0474 10.5384 16.6805 10.9289 17.0711C11.3195 17.4616 11.9526 17.4616 12.3431 17.0711L18 11.4142L23.6569 17.0711C24.0474 17.4616 24.6805 17.4616 25.0711 17.0711C25.4616 16.6805 25.4616 16.0474 25.0711 15.6569L18.7071 9.29289ZM19 26V10H17V26H19Z" fill="white"/>
</svg>
