<svg width="44" height="41" viewBox="0 0 44 41" fill="none" xmlns="http://www.w3.org/2000/svg">
<path d="M19.4498 4.11586C20.6229 2.22263 23.3771 2.22263 24.5502 4.11586L38.2148 26.1699C39.4531 28.1685 38.0157 30.75 35.6646 30.75H8.33541C5.98434 30.75 4.54695 28.1685 5.78523 26.1699L19.4498 4.11586Z" fill="#FF0000"/>
<path d="M21.56 22.256C21.3467 22.256 21.1707 22.208 21.032 22.112C20.8933 22.016 20.824 21.8667 20.824 21.664L20.84 21.536C21.0213 20.3413 21.2667 18.9813 21.576 17.456C21.8853 15.9307 22.1733 14.6133 22.44 13.504C22.6107 12.8213 23.0747 12.48 23.832 12.48C24.5147 12.48 24.856 12.6987 24.856 13.136C24.856 13.232 24.84 13.3387 24.808 13.456C24.5307 14.5867 24.1627 15.9573 23.704 17.568C23.2453 19.168 22.808 20.56 22.392 21.744C22.2747 22.0853 21.9973 22.256 21.56 22.256ZM20.952 26.08C20.4827 26.08 20.1253 25.952 19.88 25.696C19.6453 25.44 19.528 25.104 19.528 24.688C19.528 24.208 19.6613 23.824 19.928 23.536C20.2053 23.248 20.5893 23.104 21.08 23.104C21.5493 23.104 21.9013 23.2213 22.136 23.456C22.3813 23.68 22.504 24.016 22.504 24.464C22.504 24.9547 22.3653 25.3493 22.088 25.648C21.8107 25.936 21.432 26.08 20.952 26.08Z" fill="white"/>
</svg>
