<svg width="36" height="37" viewBox="0 0 36 37" fill="none" xmlns="http://www.w3.org/2000/svg">
<ellipse cx="18" cy="18.5" rx="18" ry="18.5" fill="#1D005A"/>
<path d="M19 11C19 10.4477 18.5523 10 18 10C17.4477 10 17 10.4477 17 11H19ZM17.2929 27.7071C17.6834 28.0976 18.3166 28.0976 18.7071 27.7071L25.0711 21.3431C25.4616 20.9526 25.4616 20.3195 25.0711 19.9289C24.6805 19.5384 24.0474 19.5384 23.6569 19.9289L18 25.5858L12.3431 19.9289C11.9526 19.5384 11.3195 19.5384 10.9289 19.9289C10.5384 20.3195 10.5384 20.9526 10.9289 21.3431L17.2929 27.7071ZM17 11V27H19V11H17Z" fill="white"/>
</svg>
